<svg width="32" height="32" viewBox="0 0 32 32" fill="none" xmlns="http://www.w3.org/2000/svg">
<path d="M32 23.9938C32.0012 25.5766 31.5329 27.1242 30.6543 28.4407C29.7758 29.7572 28.5264 30.7836 27.0643 31.3898C25.6023 31.9961 23.9932 32.1551 22.4408 31.8466C20.8884 31.5381 19.4623 30.776 18.3431 29.6569C17.224 28.5377 16.4619 27.1116 16.1534 25.5592C15.8449 24.0068 16.0039 22.3977 16.6102 20.9357C17.2164 19.4736 18.2428 18.2242 19.5593 17.3457C20.8758 16.4671 22.4234 15.9988 24.0062 16C26.1258 16.0016 28.1581 16.8444 29.6569 18.3431C31.1556 19.8419 31.9984 21.8742 32 23.9938Z" fill="#E99287"/>
<path d="M27.9994 2.00912H8.18258C7.76504 2.00791 7.35136 2.09581 6.96528 2.26776C6.5792 2.43971 6.2283 2.69234 5.93265 3.01118C5.63701 3.33002 5.40247 3.7088 5.24242 4.12582C5.08238 4.54285 5 4.98991 5 5.44142C5.02392 6.40115 5.37977 7.31631 5.99727 8.00615C6.61478 8.69598 7.44905 9.11032 8.33533 9.16739H27.9994M27.9994 30H8.94639C7.89974 30 6.89595 29.5504 6.15586 28.7501C5.41577 27.9498 5 26.8644 5 25.7326V5.4049M27.9988 5.58858H9.18335M28 2V29.9907M8.16699 9.16728V29.908M23.1614 17.1794H20.2843V14.0683C20.2843 13.8249 20.1949 13.5914 20.0357 13.4193C19.8766 13.2472 19.6607 13.1505 19.4356 13.1505H16.7113C16.4862 13.1505 16.2704 13.2472 16.1112 13.4193C15.9521 13.5914 15.8626 13.8249 15.8626 14.0683V17.1794H12.9941C12.769 17.1794 12.5531 17.2761 12.394 17.4482C12.2348 17.6203 12.1454 17.8537 12.1454 18.0971V21.0522C12.1454 21.2956 12.2348 21.529 12.394 21.7011C12.5531 21.8732 12.769 21.9699 12.9941 21.9699H15.8626V25.0718C15.8626 25.3152 15.9521 25.5486 16.1112 25.7207C16.2704 25.8929 16.4862 25.9896 16.7113 25.9896H19.4526C19.6777 25.9896 19.8935 25.8929 20.0527 25.7207C20.2119 25.5486 20.3013 25.3152 20.3013 25.0718V21.9699H23.1614C23.3864 21.9699 23.6023 21.8732 23.7615 21.7011C23.9206 21.529 24.01 21.2956 24.01 21.0522V18.042C23.9971 17.8083 23.9019 17.5888 23.7442 17.4284C23.5864 17.268 23.3779 17.1789 23.1614 17.1794Z" stroke="#001698" stroke-width="1.8" stroke-linecap="round" stroke-linejoin="round"/>
</svg>
