<svg width="54" height="54" viewBox="0 0 54 54" fill="none" xmlns="http://www.w3.org/2000/svg">
<path d="M27 40.4895C27.0021 43.1605 26.2118 45.772 24.7292 47.9937C23.2466 50.2153 21.1383 51.9473 18.6711 52.9704C16.2038 53.9934 13.4886 54.2617 10.8688 53.7411C8.24913 53.2205 5.8427 51.9346 3.95406 50.0459C2.06542 48.1573 0.779462 45.7509 0.258895 43.1312C-0.261671 40.5114 0.00655351 37.7962 1.02963 35.3289C2.05271 32.8617 3.78466 30.7534 6.00632 29.2708C8.22799 27.7882 10.8395 26.9979 13.5105 27C17.0873 27.0028 20.5168 28.4249 23.0459 30.9541C25.5751 33.4832 26.9972 36.9127 27 40.4895Z" fill="#E99287"/>
<path d="M16.1756 3.375V9.80742M36.7151 3.375V9.80742M4.51607 17.4523H48.375M10.2963 6.08637H42.4982C44.0312 6.08637 45.5014 6.72326 46.5854 7.85694C47.6694 8.99063 48.2784 10.5282 48.2784 12.1315V44.563C48.2784 46.1708 47.6677 47.7127 46.5807 48.8495C45.4937 49.9863 44.0194 50.625 42.4821 50.625H10.2802C8.74721 50.625 7.27699 49.9881 6.19299 48.8544C5.10898 47.7207 4.5 46.1831 4.5 44.5799V12.1315C4.5 11.3362 4.65005 10.5488 4.94154 9.81423C5.23303 9.07971 5.66023 8.41255 6.19869 7.85098C6.73714 7.28942 7.37625 6.84449 8.0794 6.54168C8.78254 6.23888 9.53592 6.08416 10.2963 6.08637Z" stroke="#001698" stroke-width="2.2" stroke-linecap="round" stroke-linejoin="round"/>
</svg>
